<?xml version="1.0" standalone="no"?>
<!DOCTYPE svg PUBLIC "-//W3C//DTD SVG 20010904//EN"
 "http://www.w3.org/TR/2001/REC-SVG-20010904/DTD/svg10.dtd">
<svg version="1.0" xmlns="http://www.w3.org/2000/svg"
 width="512.000000pt" height="512.000000pt" viewBox="0 0 512.000000 512.000000"
 preserveAspectRatio="xMidYMid meet">
<metadata>
Created by potrace 1.11, written by Peter Selinger 2001-2013
</metadata>
<g transform="translate(0.000000,512.000000) scale(0.100000,-0.100000)"
fill="#000000" stroke="none">
<path d="M695 4535 c-5 -2 -44 -11 -85 -20 -230 -53 -433 -218 -533 -435 -20
-41 -41 -95 -47 -120 -7 -25 -15 -54 -18 -65 -11 -36 -13 -2564 -3 -2636 51
-330 296 -588 631 -665 19 -5 742 -10 1605 -11 1527 -2 1572 -2 1652 17 394
94 728 387 842 740 12 36 28 101 35 145 8 44 26 141 41 215 14 74 28 147 30
162 3 15 14 72 24 125 29 151 34 177 36 193 2 14 20 107 30 160 3 14 12 63 21
110 9 47 18 94 20 105 2 11 15 79 29 150 13 72 27 142 30 158 3 15 7 39 10 55
3 15 17 88 31 162 14 74 29 155 34 179 13 70 10 223 -7 298 -37 164 -142 317
-287 416 -88 60 -193 99 -357 131 -18 4 -37 23 -64 67 -78 126 -223 247 -370
308 -153 64 -75 61 -1774 60 -850 0 -1550 -2 -1556 -4z m3168 -424 c116 -46
208 -147 243 -266 16 -56 17 -150 17 -1285 0 -1127 -1 -1230 -17 -1285 -29
-102 -108 -200 -199 -246 -93 -48 -54 -47 -1652 -47 -826 1 -1517 5 -1540 10
-102 22 -205 98 -258 189 -59 103 -57 39 -56 1378 0 1334 -2 1282 56 1381 55
93 163 170 266 189 23 4 726 7 1562 6 l1520 -1 58 -23z"/>
<path d="M985 3703 c-58 -19 -112 -68 -140 -125 l-24 -50 -1 -420 c0 -263 3
-434 10 -458 15 -57 68 -120 125 -149 l49 -26 425 0 c311 -1 436 2 462 11 87
29 150 97 165 179 9 50 9 811 -1 862 -13 73 -59 129 -135 166 -44 21 -55 22
-470 23 -333 1 -434 -2 -465 -13z"/>
<path d="M2435 3703 c-36 -9 -87 -55 -102 -92 -11 -26 -14 -60 -11 -122 3 -73
8 -91 29 -117 52 -65 40 -64 636 -64 599 0 587 -1 638 67 25 32 29 47 32 116
4 96 -16 153 -68 190 l-34 24 -550 1 c-302 1 -559 0 -570 -3z"/>
<path d="M2408 2849 c-62 -32 -82 -72 -87 -166 -4 -101 19 -159 76 -193 36
-21 43 -21 588 -22 597 0 581 -1 632 54 31 33 40 64 41 144 1 94 -25 149 -85
180 -42 22 -46 22 -585 22 -516 1 -545 0 -580 -19z"/>
<path d="M935 1892 c-26 -5 -81 -47 -101 -77 -20 -30 -27 -138 -14 -196 13
-52 57 -101 105 -116 18 -5 543 -9 1325 -8 l1295 0 37 23 c56 35 78 89 75 188
-3 95 -26 142 -85 170 -35 17 -102 18 -1327 19 -710 0 -1300 -2 -1310 -3z"/>
</g>
</svg>
